<mxfile host="app.diagrams.net" modified="2020-11-10T02:30:33.118Z" agent="5.0 (Windows NT 10.0; Win64; x64) AppleWebKit/537.36 (KHTML, like Gecko) Chrome/86.0.4240.183 Safari/537.36 Edg/86.0.622.63" etag="Tn2iWypvWk1bZY9pnebz" version="13.9.2" type="github">
  <diagram id="Xb9YHacXH_46VcTU4vqf" name="Page-1">
    <mxGraphModel dx="782" dy="437" grid="1" gridSize="10" guides="1" tooltips="1" connect="1" arrows="1" fold="1" page="1" pageScale="1" pageWidth="827" pageHeight="1169" math="0" shadow="0">
      <root>
        <mxCell id="0" />
        <mxCell id="1" parent="0" />
        <mxCell id="nJL4mZwbDdtuzIEOGoWh-3" style="edgeStyle=orthogonalEdgeStyle;rounded=0;orthogonalLoop=1;jettySize=auto;html=1;entryX=0;entryY=0.5;entryDx=0;entryDy=0;" edge="1" parent="1" source="nJL4mZwbDdtuzIEOGoWh-1" target="nJL4mZwbDdtuzIEOGoWh-2">
          <mxGeometry relative="1" as="geometry" />
        </mxCell>
        <mxCell id="nJL4mZwbDdtuzIEOGoWh-1" value="A币" style="rounded=0;whiteSpace=wrap;html=1;" vertex="1" parent="1">
          <mxGeometry x="50" y="150" width="120" height="60" as="geometry" />
        </mxCell>
        <mxCell id="nJL4mZwbDdtuzIEOGoWh-9" style="edgeStyle=orthogonalEdgeStyle;rounded=0;orthogonalLoop=1;jettySize=auto;html=1;" edge="1" parent="1" source="nJL4mZwbDdtuzIEOGoWh-2" target="nJL4mZwbDdtuzIEOGoWh-8">
          <mxGeometry relative="1" as="geometry" />
        </mxCell>
        <mxCell id="nJL4mZwbDdtuzIEOGoWh-10" value="提交" style="edgeLabel;html=1;align=center;verticalAlign=middle;resizable=0;points=[];" vertex="1" connectable="0" parent="nJL4mZwbDdtuzIEOGoWh-9">
          <mxGeometry x="-0.3185" y="-3" relative="1" as="geometry">
            <mxPoint x="9" y="-3" as="offset" />
          </mxGeometry>
        </mxCell>
        <mxCell id="nJL4mZwbDdtuzIEOGoWh-2" value="填入地址码" style="rounded=0;whiteSpace=wrap;html=1;" vertex="1" parent="1">
          <mxGeometry x="220" y="150" width="120" height="60" as="geometry" />
        </mxCell>
        <mxCell id="nJL4mZwbDdtuzIEOGoWh-7" value="龙支付区块链" style="shape=cylinder3;whiteSpace=wrap;html=1;boundedLbl=1;backgroundOutline=1;size=15;fillColor=#d5e8d4;strokeColor=#82b366;" vertex="1" parent="1">
          <mxGeometry x="827" y="240" width="140" height="80" as="geometry" />
        </mxCell>
        <mxCell id="nJL4mZwbDdtuzIEOGoWh-13" style="edgeStyle=orthogonalEdgeStyle;rounded=0;orthogonalLoop=1;jettySize=auto;html=1;entryX=0;entryY=0.5;entryDx=0;entryDy=0;" edge="1" parent="1" source="nJL4mZwbDdtuzIEOGoWh-8" target="nJL4mZwbDdtuzIEOGoWh-12">
          <mxGeometry relative="1" as="geometry" />
        </mxCell>
        <mxCell id="nJL4mZwbDdtuzIEOGoWh-8" value="转账申请单" style="rounded=1;whiteSpace=wrap;html=1;" vertex="1" parent="1">
          <mxGeometry x="400" y="150" width="120" height="60" as="geometry" />
        </mxCell>
        <mxCell id="nJL4mZwbDdtuzIEOGoWh-11" value="龙支付其他币种账户，每个币种有多个账户" style="shape=cylinder3;whiteSpace=wrap;html=1;boundedLbl=1;backgroundOutline=1;size=15;fillColor=#d5e8d4;strokeColor=#82b366;" vertex="1" parent="1">
          <mxGeometry x="827" y="385" width="160" height="70" as="geometry" />
        </mxCell>
        <mxCell id="nJL4mZwbDdtuzIEOGoWh-14" style="edgeStyle=orthogonalEdgeStyle;rounded=0;orthogonalLoop=1;jettySize=auto;html=1;entryX=0.5;entryY=1;entryDx=0;entryDy=0;entryPerimeter=0;exitX=0.5;exitY=1;exitDx=0;exitDy=0;" edge="1" parent="1" source="nJL4mZwbDdtuzIEOGoWh-22" target="nJL4mZwbDdtuzIEOGoWh-11">
          <mxGeometry relative="1" as="geometry">
            <Array as="points">
              <mxPoint x="660" y="520" />
              <mxPoint x="907" y="520" />
            </Array>
          </mxGeometry>
        </mxCell>
        <mxCell id="nJL4mZwbDdtuzIEOGoWh-20" style="edgeStyle=orthogonalEdgeStyle;rounded=0;orthogonalLoop=1;jettySize=auto;html=1;entryX=0.5;entryY=0;entryDx=0;entryDy=0;" edge="1" parent="1" source="nJL4mZwbDdtuzIEOGoWh-12" target="nJL4mZwbDdtuzIEOGoWh-17">
          <mxGeometry relative="1" as="geometry" />
        </mxCell>
        <mxCell id="nJL4mZwbDdtuzIEOGoWh-24" style="edgeStyle=orthogonalEdgeStyle;rounded=0;orthogonalLoop=1;jettySize=auto;html=1;entryX=1;entryY=0.5;entryDx=0;entryDy=0;entryPerimeter=0;" edge="1" parent="1" source="nJL4mZwbDdtuzIEOGoWh-12" target="nJL4mZwbDdtuzIEOGoWh-11">
          <mxGeometry relative="1" as="geometry" />
        </mxCell>
        <mxCell id="nJL4mZwbDdtuzIEOGoWh-25" value="确认已经收到了转入的金额" style="edgeLabel;html=1;align=center;verticalAlign=middle;resizable=0;points=[];" vertex="1" connectable="0" parent="nJL4mZwbDdtuzIEOGoWh-24">
          <mxGeometry x="-0.2419" y="1" relative="1" as="geometry">
            <mxPoint as="offset" />
          </mxGeometry>
        </mxCell>
        <mxCell id="nJL4mZwbDdtuzIEOGoWh-12" value="人工核验提供转入地址" style="rounded=0;whiteSpace=wrap;html=1;" vertex="1" parent="1">
          <mxGeometry x="600" y="150" width="120" height="60" as="geometry" />
        </mxCell>
        <mxCell id="nJL4mZwbDdtuzIEOGoWh-15" value="查询交易记录？？" style="rounded=0;whiteSpace=wrap;html=1;fillColor=#e51400;strokeColor=#B20000;fontColor=#ffffff;" vertex="1" parent="1">
          <mxGeometry x="990" y="510" width="120" height="60" as="geometry" />
        </mxCell>
        <mxCell id="nJL4mZwbDdtuzIEOGoWh-18" style="edgeStyle=orthogonalEdgeStyle;rounded=0;orthogonalLoop=1;jettySize=auto;html=1;entryX=0;entryY=0;entryDx=0;entryDy=52.5;entryPerimeter=0;" edge="1" parent="1" source="nJL4mZwbDdtuzIEOGoWh-17" target="nJL4mZwbDdtuzIEOGoWh-7">
          <mxGeometry relative="1" as="geometry" />
        </mxCell>
        <mxCell id="nJL4mZwbDdtuzIEOGoWh-21" value="是&lt;br&gt;" style="edgeLabel;html=1;align=center;verticalAlign=middle;resizable=0;points=[];" vertex="1" connectable="0" parent="nJL4mZwbDdtuzIEOGoWh-18">
          <mxGeometry x="-0.3429" y="3" relative="1" as="geometry">
            <mxPoint as="offset" />
          </mxGeometry>
        </mxCell>
        <mxCell id="nJL4mZwbDdtuzIEOGoWh-23" style="edgeStyle=orthogonalEdgeStyle;rounded=0;orthogonalLoop=1;jettySize=auto;html=1;" edge="1" parent="1" source="nJL4mZwbDdtuzIEOGoWh-17" target="nJL4mZwbDdtuzIEOGoWh-22">
          <mxGeometry relative="1" as="geometry" />
        </mxCell>
        <mxCell id="nJL4mZwbDdtuzIEOGoWh-17" value="是否转入龙支付钱包" style="rhombus;whiteSpace=wrap;html=1;" vertex="1" parent="1">
          <mxGeometry x="595" y="270" width="130" height="80" as="geometry" />
        </mxCell>
        <mxCell id="nJL4mZwbDdtuzIEOGoWh-22" value="转入其他区块链" style="rounded=1;whiteSpace=wrap;html=1;" vertex="1" parent="1">
          <mxGeometry x="600" y="410" width="120" height="60" as="geometry" />
        </mxCell>
      </root>
    </mxGraphModel>
  </diagram>
</mxfile>
